<svg data-v-0dd9719b="" version="1.0" xmlns="http://www.w3.org/2000/svg" xmlns:xlink="http://www.w3.org/1999/xlink" width="100%" height="100%" viewBox="0 0 340.000000 250.000000" preserveAspectRatio="xMidYMid meet" color-interpolation-filters="sRGB" style="margin: auto;"> <rect data-v-0dd9719b="" x="0" y="0" width="100%" height="100%" fill="#fff" fill-opacity="1" class="background"></rect> <rect data-v-0dd9719b="" x="0" y="0" width="100%" height="100%" fill="url(#watermark)" fill-opacity="1" class="watermarklayer"></rect> <g data-v-0dd9719b="" fill="#333" class="icon-text-wrapper icon-svg-group iconsvg" transform="translate(48.72638702392578,94.99699974060059)"><g class="iconsvg-imagesvg" transform="translate(0,0)"><g><rect fill="#333" fill-opacity="0" stroke-width="2" x="0" y="0" width="60" height="60.006000600060005" class="image-rect"></rect> <svg x="0" y="0" width="60" height="60.006000600060005" filtersec="colorsb8588624568" class="image-svg-svg primary" style="overflow: visible;"><svg xmlns="http://www.w3.org/2000/svg" viewBox="0.01964184083044529 -0.03000464104115963 99.9903564453125 100.00001525878906"><path d="M75.74 61.83H62.5a17.53 17.53 0 0 1-26.75-1.37 2.57 2.57 0 0 0 .3-1.17 2.53 2.53 0 1 0-2.53 2.53 2.73 2.73 0 0 0 .5 0A19.68 19.68 0 0 0 63.41 64h9.45a26.79 26.79 0 1 1 0-28h-9.1a19.69 19.69 0 0 0-30.19 2.5 2.53 2.53 0 1 0 2.48 2.5 2.47 2.47 0 0 0-.53-1.53 17.53 17.53 0 0 1 27.29-1.33H98.6a50 50 0 1 0 0 23.66zm-43.45-2.54a1.23 1.23 0 1 1 1.23 1.23 1.24 1.24 0 0 1-1.23-1.23zM34.75 41a1.23 1.23 0 1 1-1.23-1.23A1.23 1.23 0 0 1 34.75 41zM83.6 73.42a3.7 3.7 0 0 1-.95-.14 40 40 0 1 1 0-46.56 3.7 3.7 0 0 1 .95-.14 3.86 3.86 0 1 1-3.27 1.86 37.14 37.14 0 1 0 0 43.12 3.83 3.83 0 1 1 3.27 1.86z" fill="#0080df"></path><path d="M99.87 46.27H58.16a9 9 0 1 0 0 7.46h41.71c.09-1.23.14-2.47.14-3.73s-.01-2.5-.14-3.73zM50 53.73A3.73 3.73 0 1 1 53.73 50 3.73 3.73 0 0 1 50 53.73z" fill="#f6911e"></path><path d="M81.74 30.42a1.87 1.87 0 1 0 1.86-1.87 1.87 1.87 0 0 0-1.86 1.87zM83.6 67.71a1.87 1.87 0 1 0 1.87 1.87 1.87 1.87 0 0 0-1.87-1.87z" fill="#0080df"></path></svg></svg> <!----></g></g> <g transform="translate(67,14.568699836730957)"><g data-gra="path-name" fill-rule="" class="tp-name iconsvg-namesvg"><g transform="scale(1)"><g><path d="M13.91-7.76L5.95-20.78 5.47-21.6Q5.3-21.7 5.25-21.67 5.19-21.63 5.19-21.55 5.19-21.46 5.19-21.05L5.19-21.05 5.23-17.16 5.23-0.89Q5.23 0.03 4.15 0.03 3.08 0.03 3.08-0.89L3.08-0.89 3.08-17.84Q3.08-22.21 3.18-22.83 3.28-23.44 3.42-23.67 3.55-23.89 3.78-24.09 4-24.3 4.27-24.38 4.55-24.47 4.87-24.44 5.19-24.4 5.72-24.25 6.25-24.09 6.87-23.1L6.87-23.1 8.03-21.26 18.66-3.76 19.24-2.77Q19.38-2.56 19.45-2.6 19.51-2.63 19.53-2.7 19.55-2.77 19.55-5.23L19.55-5.23 19.55-23.48Q19.55-24.06 19.87-24.28 20.2-24.5 20.68-24.47L20.68-24.47Q21.09-24.44 21.38-24.18 21.67-23.92 21.67-23.48L21.67-23.48 21.67-3.18Q21.67-1.85 21.53-1.37 21.39-0.89 20.88-0.41 20.37 0.07 19.75 0.09 19.14 0.1 18.57-0.46 18.01-1.03 17.26-2.29L17.26-2.29 13.91-7.76ZM34.48-17.09Q36.91-17.09 38.62-15.87 40.33-14.66 41.18-12.73 42.04-10.8 42.04-8.61L42.04-8.61Q42.04-6.36 41.18-4.39 40.33-2.43 38.58-1.21 36.84 0 34.31 0L34.31 0Q31.92 0 30.13-1.2 28.33-2.39 27.39-4.37 26.45-6.36 26.45-8.71L26.45-8.71Q26.45-10.94 27.32-12.83 28.19-14.73 30.01-15.91 31.82-17.09 34.48-17.09L34.48-17.09ZM34.31-15.14Q32.53-15.14 31.12-14.34 29.7-13.53 28.88-12 28.06-10.46 28.06-8.37L28.06-8.37Q28.06-6.22 28.98-4.72 29.9-3.21 31.37-2.46 32.84-1.71 34.52-1.71L34.52-1.71Q35.92-1.71 37.27-2.51 38.62-3.31 39.46-4.78 40.29-6.25 40.29-8.17L40.29-8.17Q40.29-11.41 38.63-13.28 36.98-15.14 34.31-15.14L34.31-15.14ZM48.15-0.99Q47.98-0.44 47.76-0.19 47.54 0.07 47.13 0.15 46.72 0.24 46.43-0.07 46.14-0.38 46.14-0.99L46.14-0.99 46.14-16.1Q46.14-17.4 47.18-17.38 48.22-17.36 48.22-16.1L48.22-16.1 48.22-15.11Q48.22-14.97 48.15-14.76 48.08-14.56 48.08-14.35 48.08-14.15 48.19-14.11 48.29-14.08 48.49-14.46L48.49-14.46Q48.63-14.7 48.89-15.07 49.14-15.45 49.64-15.99 50.13-16.54 51.31-17 52.49-17.46 53.55-17.46L53.55-17.46Q54.51-17.46 55.55-17.05 56.59-16.64 57.31-15.96 58.03-15.28 58.54-14.2 59.05-13.12 58.95-12.58L58.95-12.58Q58.88-12.17 58.63-11.91 58.37-11.65 57.89-11.65L57.89-11.65Q57.45-11.65 57.21-11.84 56.97-12.03 56.73-12.75 56.49-13.46 56.06-14.1 55.64-14.73 54.99-15.04 54.34-15.34 53.42-15.31L53.42-15.31Q52.7-15.28 51.86-15.02 51.02-14.76 49.88-13.57 48.73-12.37 48.44-11.28 48.15-10.18 48.15-9.06L48.15-9.06 48.15-0.99ZM76.96-22.9L76.96-0.82Q76.96 0.34 75.89 0.32 74.81 0.31 74.88-0.82L74.88-0.82 74.91-1.54Q74.95-2.02 74.89-2.12 74.84-2.22 74.6-2.22L74.6-2.22Q74.33-2.22 74.13-2.08 73.92-1.95 73.37-1.57L73.37-1.57Q72.18-0.82 71.29-0.24 70.4 0.34 68.15 0.34L68.15 0.34Q63.53 0.34 61.77-1.32 60.01-2.97 60.01-7.93L60.01-7.93Q60.01-14.11 61.93-15.58 63.84-17.05 68.56-17.05L68.56-17.05Q71.97-17.05 72.91-15.94 73.85-14.83 74.4-14.29L74.4-14.29Q74.6-14.05 74.71-14.01 74.81-13.98 74.88-14.05L74.88-14.05 74.84-14.73 74.84-22.45Q74.84-23.34 75.1-23.68 75.36-24.03 75.9-23.99 76.45-23.96 76.65-23.7 76.86-23.44 76.96-22.9L76.96-22.9ZM74.74-8.58Q74.64-10.01 73.94-11.52 73.24-13.02 71.89-14.06 70.54-15.11 68.66-15.11L68.66-15.11Q66.61-15.11 65.14-14.05 63.67-12.99 62.92-11.36 62.16-9.74 62.16-8.1L62.16-8.1Q62.16-5.26 63.8-3.47 65.45-1.67 68.49-1.67L68.49-1.67Q71.49-1.67 73.12-3.61 74.74-5.54 74.74-8.58L74.74-8.58ZM106.76-6.15L93.64-6.15 90.94-0.27Q90.8 0 90.55 0.17 90.29 0.34 89.93 0.36 89.57 0.38 89.3 0.05 89.03-0.27 88.97-0.55 88.92-0.82 89.06-1.09L89.06-1.09 98.05-21.67Q98.83-23.44 99.3-23.79 99.76-24.13 100.2-24.13L100.2-24.13Q100.61-24.13 101.09-23.84 101.57-23.55 101.81-23L101.81-23 110.93-2.02Q111.41-0.96 111.36-0.6 111.31-0.24 111 0.05 110.69 0.34 110.28 0.31L110.28 0.31Q109.94 0.31 109.67 0.1 109.39-0.1 109.12-0.75L109.12-0.75 106.76-6.15ZM94.46-8.17L106.05-8.17 105.6-9.19 100.78-20.54Q100.44-21.33 100.25-21.31 100.06-21.29 99.86-20.81L99.86-20.81 94.46-8.17ZM114.62-1.09Q114.45-0.62 114.28-0.39 114.11-0.17 113.68-0.05 113.26 0.07 112.9-0.22 112.54-0.51 112.54-1.09L112.54-1.09 112.54-16.16Q112.54-16.61 112.88-16.87 113.22-17.12 113.6-17.12L113.6-17.12Q114.01-17.12 114.32-16.87 114.62-16.61 114.62-16.37L114.62-16.37 114.62-15.11 114.55-14.7Q114.59-14.49 114.73-14.42 114.86-14.35 115.27-14.97L115.27-14.97Q115.48-15.28 115.92-15.64 116.37-15.99 116.84-16.32 117.32-16.64 117.82-16.85 118.31-17.05 119.08-17.16 119.85-17.26 120.33-17.29L120.33-17.29Q120.84-17.29 121.7-17.12 122.55-16.95 123.29-16.61 124.02-16.27 124.82-15.53 125.63-14.8 126.16-13.67 126.69-12.54 126.69-10.53L126.69-10.53 126.69-1.09Q126.69-0.72 126.36-0.36 126.04 0 125.58 0.05 125.11 0.1 124.82-0.32 124.53-0.75 124.53-1.09L124.53-1.09 124.53-9.43Q124.53-11.76 124.38-12.49 124.23-13.23 123.56-13.91 122.89-14.59 121.99-14.93 121.08-15.28 120.3-15.31L120.3-15.31Q119.27-15.34 118.25-14.92 117.22-14.49 116.64-13.88 116.06-13.26 115.49-12.39 114.93-11.52 114.78-10.87 114.62-10.22 114.62-9.16L114.62-9.16 114.62-1.09ZM138.2 6.39Q137.9 6.39 136.6 6.27 135.3 6.15 134.87 6.07 134.44 5.98 133.73 5.71 133.01 5.43 132.41 5.11 131.81 4.78 131.11 4 130.41 3.21 130.19 2.38 129.97 1.54 129.95 0.63 129.93-0.27 130.14-0.89L130.14-0.89Q130.28-1.44 130.63-1.97 130.99-2.49 131.42-2.87 131.85-3.25 132.29-3.42L132.29-3.42 133.01-3.69Q133.28-3.79 133.28-3.93L133.28-3.93Q133.28-4 133.08-4.14L133.08-4.14 132.19-4.51Q131.74-4.68 131.45-5.16 131.16-5.64 131.15-6.2 131.13-6.77 131.51-7.28L131.51-7.28Q131.71-7.55 132.02-7.77 132.33-8 132.6-8.1L132.6-8.1 133.04-8.2Q133.32-8.3 133.33-8.41 133.35-8.51 133.18-8.68L133.18-8.68Q133.11-8.75 132.86-8.99 132.6-9.23 132.39-9.48 132.19-9.74 132-10.3 131.81-10.87 131.74-11.59 131.68-12.3 131.81-13.16L131.81-13.16Q131.98-14.05 132.39-14.73 132.8-15.41 133.49-15.91 134.17-16.4 135.33-16.83 136.5-17.26 138-17.22L138-17.22Q139.26-17.19 140.02-16.95L140.02-16.95 142.03-16.27Q142.54-16.78 142.97-17.12 143.4-17.46 143.86-17.69 144.32-17.91 144.66-17.87 145-17.84 145.26-17.57 145.52-17.29 145.52-16.88L145.52-16.88Q145.52-16.47 145.35-16.27 145.18-16.06 144.54-15.77 143.91-15.48 143.77-15.34L143.77-15.34 143.33-14.9Q143.54-14.39 143.72-13.93 143.91-13.46 144.03-12.97 144.15-12.47 144.12-11.69L144.12-11.69Q144.05-10.83 143.76-10.06 143.47-9.3 142.87-8.63 142.27-7.96 141.47-7.64 140.66-7.31 139.45-7.25 138.24-7.18 137.16-7.21 136.09-7.25 135.81-7.21L135.81-7.21Q135.5-7.18 134.55-7.04 133.59-6.9 133.35-6.65 133.11-6.39 133.08-6.17 133.04-5.95 133.32-5.67L133.32-5.67Q133.49-5.43 134.22-5.31 134.96-5.19 135.42-5.13 135.88-5.06 137.5-4.99 139.13-4.92 140.27-4.77 141.42-4.61 142.77-4.14 144.12-3.66 144.75-2.89 145.38-2.12 145.67-1.21 145.96-0.31 145.93 0.65L145.93 0.65Q145.89 1.57 145.67 2.27 145.45 2.97 145.12 3.45 144.8 3.93 144.17 4.51 143.54 5.09 143.02 5.37 142.51 5.64 141.81 5.88 141.11 6.12 140.05 6.27 138.99 6.42 138.2 6.39L138.2 6.39ZM138.34 4.37Q140.43 4.37 141.55 3.84 142.68 3.31 143.35 2.48 144.01 1.64 143.98 0.48L143.98 0.48Q143.95-0.75 143.24-1.49 142.54-2.22 141.21-2.67 139.88-3.11 138.34-3.14L138.34-3.14Q137.08-3.18 135.81-2.96 134.55-2.73 133.69-2.26 132.84-1.78 132.38-1.04 131.92-0.31 131.92 0.65L131.92 0.65Q131.92 1.85 132.74 2.8 133.56 3.76 135.26 4.07 136.97 4.37 138.34 4.37L138.34 4.37ZM138.03-8.99Q139.13-8.99 140.12-9.24 141.11-9.5 141.72-10.15 142.34-10.8 142.27-12.13L142.27-12.13Q142.2-13.36 141.55-14.1 140.9-14.83 140.02-15.16 139.13-15.48 138.2-15.41L138.2-15.41Q137.69-15.38 136.82-15.26 135.95-15.14 135.23-14.83 134.51-14.52 133.98-13.69 133.45-12.85 133.56-11.82L133.56-11.82Q133.66-10.83 134.33-10.15 134.99-9.47 136-9.23 137.01-8.99 138.03-8.99L138.03-8.99ZM152.87-0.99Q152.87-0.68 152.54-0.34 152.22 0 151.7 0L151.7 0Q151.26 0 150.9-0.36 150.54-0.72 150.54-1.03L150.54-1.03 150.54-23.34Q150.54-23.68 150.88-23.99 151.22-24.3 151.7-24.3L151.7-24.3Q152.18-24.3 152.52-23.99 152.87-23.68 152.87-23.34L152.87-23.34 152.87-0.99ZM156.66-1.16L156.69-16.34Q156.69-16.75 157.03-17 157.38-17.26 157.7-17.29 158.03-17.33 158.42-17.09 158.81-16.85 158.81-16.34L158.81-16.34 158.85-1.16Q158.85-0.72 158.47-0.48 158.09-0.24 157.68-0.27L157.68-0.27Q157.31-0.31 156.97-0.55 156.62-0.79 156.66-1.16L156.66-1.16ZM157.82-20.61Q157.24-20.61 156.81-21.03 156.39-21.46 156.39-22.08L156.39-22.08Q156.39-22.66 156.81-23.09 157.24-23.51 157.82-23.51L157.82-23.51Q158.4-23.51 158.83-23.09 159.26-22.66 159.26-22.08L159.26-22.08Q159.26-21.46 158.83-21.03 158.4-20.61 157.82-20.61L157.82-20.61ZM173.1-9.53L169.99-9.4Q167.59-9.3 166.42-8.77 165.24-8.24 164.6-7.48 163.97-6.73 163.95-5.79 163.94-4.85 164.21-4.27L164.21-4.27Q164.48-3.62 165.24-2.99 165.99-2.36 167.32-2.07 168.65-1.78 170.16-1.88L170.16-1.88Q171.32-1.95 172.28-2.26 173.23-2.56 174.04-3.11 174.84-3.66 175.39-4.39 175.93-5.13 176.12-5.69 176.31-6.25 176.43-6.99 176.55-7.72 176.58-8.97 176.62-10.22 176.55-10.29 176.48-10.36 176.46-10.3 176.45-10.25 175.35-9.84L175.35-9.84Q175.11-9.74 174.53-9.67L174.53-9.67 173.1-9.53ZM178.39-4.41Q178.36-3.31 178.43-2.49L178.43-2.49Q178.5-1.74 178.56-1.44L178.56-1.44Q178.67-0.99 178.6-0.68L178.6-0.68Q178.46-0.38 178.29-0.24L178.29-0.24Q178.02-0.03 177.71-0.07L177.71-0.07Q177.37-0.07 177.1-0.27L177.1-0.27Q176.86-0.41 176.69-0.82L176.69-0.82Q176.51-1.23 176.51-1.61L176.51-1.61 176.55-2.39 176.55-2.56Q176.55-2.7 176.51-2.73L176.51-2.73 176.34-2.84 176.31-2.84Q176.21-2.84 175.97-2.6L175.97-2.6Q175.63-2.15 175.42-1.98L175.42-1.98 174.7-1.47Q174.26-1.16 173.58-0.82L173.58-0.82Q173.03-0.55 171.93-0.27L171.93-0.27Q170.84 0 169.37 0L169.37 0Q167.66 0 166.23-0.44L166.23-0.44Q164.62-0.96 163.73-1.74L163.73-1.74Q162.67-2.63 162.33-3.52L162.33-3.52Q161.92-4.44 161.92-5.6L161.92-5.6Q161.92-6.42 162.19-7.18L162.19-7.18Q162.47-7.96 162.88-8.54L162.88-8.54Q163.39-9.19 164.38-9.88L164.38-9.88Q165.48-10.59 166.67-10.83L166.67-10.83Q167.97-11.11 168.48-11.14L168.48-11.14 171.42-11.24Q172.79-11.28 173.78-11.41L173.78-11.41Q174.43-11.45 175.15-11.65L175.15-11.65Q175.66-11.82 176.07-12.27L176.07-12.27Q176.55-12.75 176.55-13.26L176.55-13.26Q176.55-13.74 175.9-14.32L175.9-14.32Q175.01-14.97 173.54-15.36 172.07-15.75 171.15-15.75L171.15-15.75Q167.46-15.75 165.65-13.81L165.65-13.81 164.86-12.92Q164.69-12.68 164.45-12.58L164.45-12.58Q164.21-12.44 163.9-12.44L163.9-12.44 163.84-12.44Q163.6-12.44 163.29-12.68L163.29-12.68Q162.91-12.99 162.91-13.46L162.91-13.46Q162.91-13.91 163.63-14.76L163.63-14.76Q166.64-17.57 170.43-17.57L170.43-17.57Q172.58-17.57 174.45-16.99 176.31-16.4 177.44-15.28 178.56-14.15 178.56-12.54L178.56-12.54 178.53-9.19 178.39-4.41Z" transform="translate(-3.0799999237060547, 24.473600387573242)"></path></g> <!----> <!----> <!----> <!----> <!----> <!----> <!----></g></g> <!----></g></g><defs v-gra="od"></defs></svg>